<svg id="Capa_1" enable-background="new 0 0 515.555 515.555" height="512" viewBox="193.333740234375 -0.0002498626708984375 128.88848876953125 515.554443359375" width="512" xmlns="http://www.w3.org/2000/svg"><path d="m303.347 18.875c25.167 25.167 25.167 65.971 0 91.138s-65.971 25.167-91.138 0-25.167-65.971 0-91.138c25.166-25.167 65.97-25.167 91.138 0"></path><path d="m303.347 212.209c25.167 25.167 25.167 65.971 0 91.138s-65.971 25.167-91.138 0-25.167-65.971 0-91.138c25.166-25.167 65.97-25.167 91.138 0"></path><path d="m303.347 405.541c25.167 25.167 25.167 65.971 0 91.138s-65.971 25.167-91.138 0-25.167-65.971 0-91.138c25.166-25.167 65.97-25.167 91.138 0"></path></svg>